<?xml version="1.0" encoding="UTF-8" standalone="no"?>
<!-- Created with Inkscape (http://www.inkscape.org/) -->

<svg
   xmlns:osb="http://www.openswatchbook.org/uri/2009/osb"
   xmlns:dc="http://purl.org/dc/elements/1.1/"
   xmlns:cc="http://creativecommons.org/ns#"
   xmlns:rdf="http://www.w3.org/1999/02/22-rdf-syntax-ns#"
   xmlns:svg="http://www.w3.org/2000/svg"
   xmlns="http://www.w3.org/2000/svg"
   xmlns:xlink="http://www.w3.org/1999/xlink"
   xmlns:sodipodi="http://sodipodi.sourceforge.net/DTD/sodipodi-0.dtd"
   xmlns:inkscape="http://www.inkscape.org/namespaces/inkscape"
   id="svg2"
   version="1.1"
   inkscape:version="0.91 r13725"
   xml:space="preserve"
   width="297mm"
   height="210mm"
   viewBox="0 0 1052.3622 744.09448"
   sodipodi:docname="mva_logo_schrift.svg"
   enable-background="new"><metadata
     id="metadata8"><rdf:RDF><cc:Work
         rdf:about=""><dc:format>image/svg+xml</dc:format><dc:type
           rdf:resource="http://purl.org/dc/dcmitype/StillImage" /><dc:title></dc:title></cc:Work></rdf:RDF></metadata><defs
     id="defs6"><linearGradient
       id="linearGradient4485"
       osb:paint="solid"><stop
         style="stop-color:#000000;stop-opacity:1;"
         offset="0"
         id="stop4487" /></linearGradient><clipPath
       clipPathUnits="userSpaceOnUse"
       id="clipPath16"><path
         d="M 0,792 612,792 612,0 0,0 0,792 Z"
         id="path18"
         inkscape:connector-curvature="0" /></clipPath><linearGradient
       inkscape:collect="always"
       xlink:href="#linearGradient4485"
       id="linearGradient4489"
       x1="-25.856097"
       y1="-11.064657"
       x2="89.513298"
       y2="-11.064657"
       gradientUnits="userSpaceOnUse" /></defs><sodipodi:namedview
     pagecolor="#ffffff"
     bordercolor="#666666"
     borderopacity="1"
     objecttolerance="10"
     gridtolerance="10"
     guidetolerance="10"
     inkscape:pageopacity="0"
     inkscape:pageshadow="2"
     inkscape:window-width="1600"
     inkscape:window-height="849"
     id="namedview4"
     showgrid="false"
     inkscape:zoom="0.70710681"
     inkscape:cx="476.14057"
     inkscape:cy="394.35414"
     inkscape:window-x="0"
     inkscape:window-y="0"
     inkscape:window-maximized="1"
     inkscape:current-layer="layer6"
     fit-margin-top="0"
     fit-margin-left="0"
     fit-margin-right="0"
     fit-margin-bottom="0"
     showguides="false"
     units="mm" /><g
     inkscape:groupmode="layer"
     id="layer7"
     inkscape:label="Bild"
     style="display:inline"
     transform="translate(0,631.90229)"><g
       id="g10"
       inkscape:groupmode="layer"
       inkscape:label="mva_logo_farbe Wappen"
       transform="matrix(1.25,0,0,-1.25,-253.03058,705.13625)"
       style="display:inline"><g
         id="g12"
         style="display:inline"
         transform="matrix(4.9861129,0,0,4.9861129,-532.61201,-1852.1589)"><g
           id="g14"
           clip-path="url(#clipPath16)"
           transform="translate(-40.729349,-0.2828427)"><path
             d="m 269.26535,526.19484 c 0,0 10e-4,0.051 10e-4,0.15 0.009,1.433 0.005,12.752 -2.099,19.126 -2.25,6.812 -4.75,10 -7.625,11.75 -2.813,0.875 -3.875,1.375 -3.875,2.375 0,1 2.187,1.937 4.875,2.562 2.687,0.625 9.312,1.75 15.25,1.75 5.937,0 15.062,-0.437 19.875,-2.062 4.812,-1.625 3.25,-3.25 1.187,-4.125 -2.062,-0.875 -3.75,-2.125 -5.125,-3.875 -1.375,-1.75 -3.125,-4.063 -5.75,-14.75 -0.312,-1.313 -1,-10.875 -0.75,-13.188 -2.437,0 -15.964,0.287 -15.964,0.287"
             style="fill:#fff200;fill-opacity:1;fill-rule:nonzero;stroke:none"
             id="path20"
             inkscape:connector-curvature="0" /><path
             d="m 243.67935,526.33684 0,5.719 c 0,0 -0.085,3.814 2.817,6.545 2.902,2.732 4.183,3.927 9.362,4.183 5.179,0.256 8.765,-2.248 9.362,-2.902 0.598,-0.655 2.248,-2.419 1.764,-2.59 -0.484,-0.171 -0.711,0.911 -2.76,2.049 -2.049,1.138 -5.378,1.963 -8.821,1.366 -3.443,-0.598 -5.607,-1.935 -7.485,-4.325 -1.877,-2.391 -1.479,-4.611 -1.451,-5.749 0.029,-1.138 -0.057,-4.382 -0.057,-4.382 l -2.731,0.086 z"
             style="fill:#fff200;fill-opacity:1;fill-rule:evenodd;stroke:none"
             id="path22"
             inkscape:connector-curvature="0" /><path
             style="fill:#231f20;fill-opacity:1;fill-rule:evenodd;stroke:none"
             d="m 258.27568,541.21997 c -6.25637,0.15141 -12.72368,-3.63106 -12.04687,-10.44063 l 0,-4.46562 1.26719,-0.006 0.0266,4.35937 c 0,12.15 17.96612,12.09625 18.20312,-0.49375 l 0,-3.95625 3.62032,-0.0188 -0.05,4.81407 c -0.14297,6.87843 -5.49999,10.07421 -11.02032,10.20781 z"
             id="path24"
             inkscape:connector-curvature="0" /><path
             d="m 277.40135,563.89184 c 11.918,0 21.584,-1.943 21.584,-4.339 0,-2.397 -9.666,-4.34 -21.584,-4.34 -11.919,0 -21.585,1.943 -21.585,4.34 0,0.033 0.002,0.067 0.006,0.101 0.104,0.908 1.596,1.748 4.067,2.436 3.92,1.091 10.304,1.802 17.512,1.802 z m -33.727,-37.889 0,5.035 c 0,15.435 25.101,15.994 25.431,0 l 0.11,-4.804"
             style="fill:none;stroke:#231f20;stroke-width:1;stroke-linecap:butt;stroke-linejoin:miter;stroke-miterlimit:2.61299992;stroke-dasharray:none;stroke-opacity:1"
             id="path30"
             inkscape:connector-curvature="0" /><path
             d="m 257.07335,558.11584 c 0.795,-0.729 12.502,-1.555 12.194,-31.771 0,-0.067 -0.001,-0.134 -0.002,-0.202 l 15.981,0.077 m 0.034,-0.129 c 0.019,-1.809 -1.551,26.859 11.828,31.692"
             style="fill:none;stroke:#231f20;stroke-width:1;stroke-linecap:butt;stroke-linejoin:miter;stroke-miterlimit:2.61299992;stroke-dasharray:none;stroke-opacity:1"
             id="path32"
             inkscape:connector-curvature="0" /><path
             d="m 278.55835,526.12884 -2.886,-0.034 c 0.1,14.477 0.236,23.625 -1.77,29.079 7.595,-0.035 2.835,0.034 6.169,0.034 -2.239,-4.837 -1.43,-15.117 -1.513,-29.079"
             style="fill:#231f20;fill-opacity:1;fill-rule:evenodd;stroke:none"
             id="path34"
             inkscape:connector-curvature="0" /><path
             d="m 278.55835,526.12884 -2.886,-0.034 c 0.1,14.477 0.236,23.625 -1.77,29.079 7.595,-0.035 2.835,0.034 6.169,0.034 -2.239,-4.837 -1.43,-15.117 -1.513,-29.079 z"
             style="fill:none;stroke:#231f20;stroke-width:0.56699997;stroke-linecap:butt;stroke-linejoin:miter;stroke-miterlimit:2.61299992;stroke-dasharray:none;stroke-opacity:1"
             id="path36"
             inkscape:connector-curvature="0" /><path
             d="m 286.55135,527.04884 -0.941,0.482"
             style="fill:#ffffff;fill-opacity:1;fill-rule:evenodd;stroke:none"
             id="path38"
             inkscape:connector-curvature="0" /><path
             d="m 263.01535,475.15684 c 6.212,-0.289 13.037,2.848 16.79,6.977 4.335,5.473 4.918,8.002 5.37,14.82 0.324,9.987 0.097,19.621 0.097,29.288 0,0 -25.978,-0.224 -41.604,0 0,-7.426 0.065,-20.293 0,-28.968 -0.226,-7.426 2.168,-12.515 6.082,-16.324 3.462,-3.266 8.056,-5.314 13.265,-5.793"
             style="fill:#fff200;fill-opacity:1;fill-rule:evenodd;stroke:none"
             id="path40"
             inkscape:connector-curvature="0" /><path
             d="m 263.01535,475.15684 c 6.212,-0.289 13.037,2.848 16.79,6.977 4.335,5.473 4.918,8.002 5.37,14.82 0.324,9.987 0.097,19.621 0.097,29.288 0,0 -25.978,-0.224 -41.604,0 0,-7.426 0.065,-20.293 0,-28.968 -0.226,-7.426 2.168,-12.515 6.082,-16.324 3.462,-3.266 8.056,-5.314 13.265,-5.793 z"
             style="fill:none;stroke:#231f20;stroke-width:1;stroke-linecap:butt;stroke-linejoin:miter;stroke-miterlimit:2.61299992;stroke-dasharray:none;stroke-opacity:1"
             id="path42"
             inkscape:connector-curvature="0" /><path
             d="m 281.56635,484.44184 c -1.423,0 -2.685,-0.832 -4.108,-0.832 -1.424,0 -3.009,0.832 -4.433,0.832 -1.423,0 -2.685,-0.832 -4.108,-0.832 -1.424,0 -3.009,0.832 -4.4,0.832 -1.456,0 -2.847,-0.992 -4.27,-0.992 -1.456,0 -2.913,0.992 -4.335,0.992 -1.456,0 -2.621,-0.832 -4.045,-0.832 -1.455,0 -3.332,0.672 -4.756,0.672 8.801,-13.124 26.335,-11.107 34.455,0.16"
             style="fill:#127bca;fill-opacity:1;fill-rule:evenodd;stroke:none"
             id="path44"
             inkscape:connector-curvature="0" /><path
             d="m 281.56635,484.44184 c -1.423,0 -2.685,-0.832 -4.108,-0.832 -1.424,0 -3.009,0.832 -4.433,0.832 -1.423,0 -2.685,-0.832 -4.108,-0.832 -1.424,0 -3.009,0.832 -4.4,0.832 -1.456,0 -2.847,-0.992 -4.27,-0.992 -1.456,0 -2.913,0.992 -4.335,0.992 -1.456,0 -2.621,-0.832 -4.045,-0.832 -1.455,0 -3.332,0.672 -4.756,0.672 8.801,-13.124 26.335,-11.107 34.455,0.16 z"
             style="fill:none;stroke:#231f20;stroke-width:0.56699997;stroke-linecap:butt;stroke-linejoin:miter;stroke-miterlimit:2.61299992;stroke-dasharray:none;stroke-opacity:1"
             id="path46"
             inkscape:connector-curvature="0" /><path
             d="m 243.72735,496.59284 0.056,11.651 c 1.714,0 3.765,-0.832 5.536,-0.832 1.714,0 3.147,0.832 4.917,0.832 1.715,0 3.485,-0.992 5.256,-0.992 1.742,0 3.428,0.992 5.198,0.992 1.686,0 3.625,-0.832 5.34,-0.832 1.742,0 3.26,0.832 5.002,0.832 1.714,0 3.653,-0.832 5.395,-0.832 1.715,0 3.26,0.832 4.974,0.832 l -0.196,-11.651 c -1.686,0 -3.232,-0.832 -4.946,-0.832 -1.743,0 -3.681,0.832 -5.396,0.832 -1.714,0 -3.232,-0.832 -4.974,-0.832 -1.714,0 -3.653,0.832 -5.339,0.832 -1.771,0 -3.457,-0.993 -5.143,-0.993 -1.77,0 -3.541,0.993 -5.255,0.993 -1.77,0 -3.203,-0.832 -4.918,-0.832 -1.77,0 -3.793,0.832 -5.507,0.832"
             style="fill:#127bca;fill-opacity:1;fill-rule:evenodd;stroke:none"
             id="path48"
             inkscape:connector-curvature="0" /><path
             d="m 243.72735,496.59284 0.056,11.651 c 1.714,0 3.765,-0.832 5.536,-0.832 1.714,0 3.147,0.832 4.917,0.832 1.715,0 3.485,-0.992 5.256,-0.992 1.742,0 3.428,0.992 5.198,0.992 1.686,0 3.625,-0.832 5.34,-0.832 1.742,0 3.26,0.832 5.002,0.832 1.714,0 3.653,-0.832 5.395,-0.832 1.715,0 3.26,0.832 4.974,0.832 l -0.196,-11.651 c -1.686,0 -3.232,-0.832 -4.946,-0.832 -1.743,0 -3.681,0.832 -5.396,0.832 -1.714,0 -3.232,-0.832 -4.974,-0.832 -1.714,0 -3.653,0.832 -5.339,0.832 -1.771,0 -3.457,-0.993 -5.143,-0.993 -1.77,0 -3.541,0.993 -5.255,0.993 -1.77,0 -3.203,-0.832 -4.918,-0.832 -1.77,0 -3.793,0.832 -5.507,0.832 z"
             style="fill:none;stroke:#231f20;stroke-width:0.56699997;stroke-linecap:butt;stroke-linejoin:miter;stroke-miterlimit:2.61299992;stroke-dasharray:none;stroke-opacity:1"
             id="path50"
             inkscape:connector-curvature="0" /><path
             d="m 285.28535,526.19484 0,-8.354 c -1.742,0 -3.147,-0.832 -4.862,-0.832 -1.742,0 -3.681,0.832 -5.395,0.832 -1.742,0 -3.26,-0.832 -5.002,-0.832 -1.714,0 -3.653,0.832 -5.339,0.832 -1.771,0 -3.457,-0.993 -5.199,-0.993 -1.771,0 -3.541,0.993 -5.256,0.993 -1.77,0 -3.203,-0.832 -4.917,-0.832 -1.771,0 -3.906,0.896 -5.592,0.896 l 0,8.29 25.542,0 16.02,0 z"
             style="fill:#127bca;fill-opacity:1;fill-rule:evenodd;stroke:none"
             id="path52"
             inkscape:connector-curvature="0" /><path
             d="m 285.28535,526.19484 0,-8.354 c -1.742,0 -3.147,-0.832 -4.862,-0.832 -1.742,0 -3.681,0.832 -5.395,0.832 -1.742,0 -3.26,-0.832 -5.002,-0.832 -1.714,0 -3.653,0.832 -5.339,0.832 -1.771,0 -3.457,-0.993 -5.199,-0.993 -1.771,0 -3.541,0.993 -5.256,0.993 -1.77,0 -3.203,-0.832 -4.917,-0.832 -1.771,0 -3.906,0.896 -5.592,0.896 l 0,8.29 25.542,0 16.02,0 z"
             style="fill:none;stroke:#231f20;stroke-width:0.56699997;stroke-linecap:butt;stroke-linejoin:miter;stroke-miterlimit:2.61299992;stroke-dasharray:none;stroke-opacity:1"
             id="path54"
             inkscape:connector-curvature="0" /><path
             d="m 254.14335,481.65984 -0.124,0 c -0.289,0 -0.495,0.286 -0.577,0.489 l 6.055,10.025 c 0.494,-0.041 0.741,-0.286 0.988,-0.693 l -6.219,-9.821 -0.123,0 z"
             style="fill:#ed1c24;fill-opacity:1;fill-rule:evenodd;stroke:none"
             id="path56"
             inkscape:connector-curvature="0" /><path
             d="m 254.14335,481.65984 -0.124,0 c -0.289,0 -0.495,0.286 -0.577,0.489 l 6.055,10.025 c 0.494,-0.041 0.741,-0.286 0.988,-0.693 l -6.219,-9.821 -0.123,0 z"
             style="fill:none;stroke:#231f20;stroke-width:0.30000001;stroke-linecap:butt;stroke-linejoin:miter;stroke-miterlimit:2.61299992;stroke-dasharray:none;stroke-opacity:1"
             id="path58"
             inkscape:connector-curvature="0" /><path
             d="m 273.62435,482.03184 0.123,0 c 0.288,0 0.494,0.285 0.577,0.489 l -6.055,10.025 c -0.494,-0.041 -0.741,-0.285 -0.988,-0.693 l 6.219,-9.821 0.124,0 z"
             style="fill:#ed1c24;fill-opacity:1;fill-rule:evenodd;stroke:none"
             id="path60"
             inkscape:connector-curvature="0" /><path
             d="m 273.62435,482.03184 0.123,0 c 0.288,0 0.494,0.285 0.577,0.489 l -6.055,10.025 c -0.494,-0.041 -0.741,-0.285 -0.988,-0.693 l 6.219,-9.821 0.124,0 z"
             style="fill:none;stroke:#231f20;stroke-width:0.30000001;stroke-linecap:butt;stroke-linejoin:miter;stroke-miterlimit:2.61299992;stroke-dasharray:none;stroke-opacity:1"
             id="path62"
             inkscape:connector-curvature="0" /><path
             d="m 263.71035,489.48184 c 2.897,-0.127 6.08,1.248 7.83,3.058 2.021,2.398 2.292,3.507 2.503,6.495 0.151,4.376 0.045,8.599 0.045,12.835 0,0 -12.112,-0.098 -19.398,0 0,-3.254 0.03,-8.893 0,-12.695 -0.106,-3.255 1.011,-5.485 2.836,-7.154 1.614,-1.431 3.756,-2.328 6.184,-2.539"
             style="fill:#127bca;fill-opacity:1;fill-rule:evenodd;stroke:none"
             id="path64"
             inkscape:connector-curvature="0" /><path
             d="m 263.71035,489.48184 c 2.897,-0.127 6.08,1.248 7.83,3.058 2.021,2.398 2.292,3.507 2.503,6.495 0.151,4.376 0.045,8.599 0.045,12.835 0,0 -12.112,-0.098 -19.398,0 0,-3.254 0.03,-8.893 0,-12.695 -0.106,-3.255 1.011,-5.485 2.836,-7.154 1.614,-1.431 3.756,-2.328 6.184,-2.539 z"
             style="fill:none;stroke:#231f20;stroke-width:0.56699997;stroke-linecap:butt;stroke-linejoin:miter;stroke-miterlimit:2.61299992;stroke-dasharray:none;stroke-opacity:1"
             id="path66"
             inkscape:connector-curvature="0" /><path
             d="m 261.40735,492.99084 c 2.933,-0.032 5.724,0.982 7.549,2.881 2.04,2.154 2.898,5.668 1.61,8.517 -1.252,2.47 -3.685,4.433 -6.727,4.971 -1.573,0.127 -3.112,0.317 -4.579,-0.221 2.934,-0.539 5.474,-1.932 6.726,-4.306 0,-0.254 -0.071,-0.476 0.108,-0.665 0.143,-0.222 0.536,-0.095 0.716,0.063 0.429,0.285 0.822,0.507 1.252,0.412 0.644,-0.159 1.108,-0.57 1.789,-0.475 0.107,-0.032 0.25,-0.095 0.214,-0.222 -0.107,-0.222 -0.393,-0.222 -0.715,-0.222 0,0 -0.036,-0.127 -0.036,-0.158 -0.215,-0.316 -0.608,0.064 -0.859,0 -0.071,-0.126 0,-0.285 0.072,-0.348 l 0.429,-0.222 c 0,-0.064 0,-0.158 -0.036,-0.19 -0.214,-0.158 -0.536,-0.095 -0.751,0 -0.251,0.19 -0.286,0.222 -0.358,0.412 0,0.127 0.072,0.158 0.072,0.348 0,0.031 -0.108,0.031 -0.215,0 -0.107,-0.095 -0.107,-0.285 -0.107,-0.443 0.107,-0.317 0.465,-0.444 0.858,-0.538 0.287,0.094 0.501,0.126 0.68,0.063 0.071,0 0.108,-0.063 0.179,-0.19 -0.179,-0.348 -0.859,-0.316 -1.216,-0.253 -0.645,0.222 -0.823,0.727 -1.181,1.013 0.143,0.475 0.608,0.792 1.181,0.918 -0.358,0.253 -0.68,-0.094 -1.002,-0.285 -0.43,-1.045 -0.179,-2.374 -1.074,-3.198 l 0,-0.317 1.682,-0.284 c 0.036,0 0.215,0 0.25,0.031 l 0.501,0.444 c 0.108,0 0.143,0 0.179,-0.096 -0.036,-0.664 -0.429,-1.456 0.179,-2.025 0,-0.033 -0.071,-0.127 -0.107,-0.159 -0.465,0.032 -0.608,0.506 -0.752,0.918 0,0.127 0,0.253 -0.035,0.317 -0.394,0.348 -0.895,-0.064 -1.253,-0.38 -0.143,-0.031 -0.25,-0.158 -0.25,-0.158 l 1.181,-0.855 c 0,-0.127 -0.036,-0.285 -0.251,-0.285 -0.179,0 -0.25,0.158 -0.322,0.285 -0.25,0.158 -0.716,0.158 -1.002,0 -0.787,-1.931 -2.826,-3.42 -4.937,-4.116 -0.752,-0.19 -1.467,-0.349 -2.183,-0.444 l 2.541,-0.538 z"
             style="fill:#fff200;fill-opacity:1;fill-rule:evenodd;stroke:none"
             id="path68"
             inkscape:connector-curvature="0" /><path
             d="m 261.40735,492.99084 c 2.933,-0.032 5.724,0.982 7.549,2.881 2.04,2.154 2.898,5.668 1.61,8.517 -1.252,2.47 -3.685,4.433 -6.727,4.971 -1.573,0.127 -3.112,0.317 -4.579,-0.221 2.934,-0.539 5.474,-1.932 6.726,-4.306 0,-0.254 -0.071,-0.476 0.108,-0.665 0.143,-0.222 0.536,-0.095 0.716,0.063 0.429,0.285 0.822,0.507 1.252,0.412 0.644,-0.159 1.108,-0.57 1.789,-0.475 0.107,-0.032 0.25,-0.095 0.214,-0.222 -0.107,-0.222 -0.393,-0.222 -0.715,-0.222 0,0 -0.036,-0.127 -0.036,-0.158 -0.215,-0.316 -0.608,0.064 -0.859,0 -0.071,-0.126 0,-0.285 0.072,-0.348 l 0.429,-0.222 c 0,-0.064 0,-0.158 -0.036,-0.19 -0.214,-0.158 -0.536,-0.095 -0.751,0 -0.251,0.19 -0.286,0.222 -0.358,0.412 0,0.127 0.072,0.158 0.072,0.348 0,0.031 -0.108,0.031 -0.215,0 -0.107,-0.095 -0.107,-0.285 -0.107,-0.443 0.107,-0.317 0.465,-0.444 0.858,-0.538 0.287,0.094 0.501,0.126 0.68,0.063 0.071,0 0.108,-0.063 0.179,-0.19 -0.179,-0.348 -0.859,-0.316 -1.216,-0.253 -0.645,0.222 -0.823,0.727 -1.181,1.013 0.143,0.475 0.608,0.792 1.181,0.918 -0.358,0.253 -0.68,-0.094 -1.002,-0.285 -0.43,-1.045 -0.179,-2.374 -1.074,-3.198 l 0,-0.317 1.682,-0.284 c 0.036,0 0.215,0 0.25,0.031 l 0.501,0.444 c 0.108,0 0.143,0 0.179,-0.096 -0.036,-0.664 -0.429,-1.456 0.179,-2.025 0,-0.033 -0.071,-0.127 -0.107,-0.159 -0.465,0.032 -0.608,0.506 -0.752,0.918 0,0.127 0,0.253 -0.035,0.317 -0.394,0.348 -0.895,-0.064 -1.253,-0.38 -0.143,-0.031 -0.25,-0.158 -0.25,-0.158 l 1.181,-0.855 c 0,-0.127 -0.036,-0.285 -0.251,-0.285 -0.179,0 -0.25,0.158 -0.322,0.285 -0.25,0.158 -0.716,0.158 -1.002,0 -0.787,-1.931 -2.826,-3.42 -4.937,-4.116 -0.752,-0.19 -1.467,-0.349 -2.183,-0.444 l 2.541,-0.538 z"
             style="fill:none;stroke:#231f20;stroke-width:0.30000001;stroke-linecap:butt;stroke-linejoin:miter;stroke-miterlimit:4;stroke-dasharray:none;stroke-opacity:1"
             id="path70"
             inkscape:connector-curvature="0" /><path
             d="m 272.24235,511.91184 1.007,0.087 1.183,1.95 -0.876,0.606 c -0.132,0 -0.176,-0.043 -0.307,-0.172 l -1.401,-2.298 c 0,-0.173 0.262,-0.26 0.394,-0.173"
             style="fill:#ed1c24;fill-opacity:1;fill-rule:evenodd;stroke:none"
             id="path72"
             inkscape:connector-curvature="0" /><path
             d="m 272.24235,511.91184 1.007,0.087 1.183,1.95 -0.876,0.606 c -0.132,0 -0.176,-0.043 -0.307,-0.172 l -1.401,-2.298 c 0,-0.173 0.262,-0.26 0.394,-0.173 z"
             style="fill:none;stroke:#231f20;stroke-width:0.30000001;stroke-linecap:butt;stroke-linejoin:miter;stroke-miterlimit:2.61299992;stroke-dasharray:none;stroke-opacity:1"
             id="path74"
             inkscape:connector-curvature="0" /><path
             d="m 277.49735,510.47184 0.264,0 c -0.264,0.411 -0.718,0.972 -0.415,1.607 1.02,1.72 3.325,1.608 4.043,3.628 0.152,0.859 -0.038,1.682 -0.567,2.093 -1.209,0.561 -2.57,0.112 -3.59,-0.374 -0.605,-0.523 -1.398,-1.122 -1.776,-1.719 0.756,0.261 1.587,1.307 2.683,0.897 0.378,-0.225 0.68,-0.636 0.794,-1.159 -0.265,-1.683 -2.645,-1.945 -2.457,-3.74 0.189,-0.672 0.454,-1.159 1.021,-1.233"
             style="fill:#ed1c24;fill-opacity:1;fill-rule:evenodd;stroke:none"
             id="path76"
             inkscape:connector-curvature="0" /><path
             d="m 277.49735,510.47184 0.264,0 c -0.264,0.411 -0.718,0.972 -0.415,1.607 1.02,1.72 3.325,1.608 4.043,3.628 0.152,0.859 -0.038,1.682 -0.567,2.093 -1.209,0.561 -2.57,0.112 -3.59,-0.374 -0.605,-0.523 -1.398,-1.122 -1.776,-1.719 0.756,0.261 1.587,1.307 2.683,0.897 0.378,-0.225 0.68,-0.636 0.794,-1.159 -0.265,-1.683 -2.645,-1.945 -2.457,-3.74 0.189,-0.672 0.454,-1.159 1.021,-1.233 z"
             style="fill:none;stroke:#231f20;stroke-width:0.30000001;stroke-linecap:butt;stroke-linejoin:miter;stroke-miterlimit:2.61299992;stroke-dasharray:none;stroke-opacity:1"
             id="path78"
             inkscape:connector-curvature="0" /><path
             d="m 274.96835,514.18484 0.264,0 c 0.076,0 0.114,0.112 0.151,0.224 -0.151,0.71 -0.982,0.86 -1.511,1.27 -0.189,0 -0.303,0.076 -0.416,0.113 -0.151,-0.037 -0.265,-0.113 -0.303,-0.261 0,-0.038 0,-0.15 0.038,-0.262 l 1.777,-1.084 z"
             style="fill:#ed1c24;fill-opacity:1;fill-rule:evenodd;stroke:none"
             id="path80"
             inkscape:connector-curvature="0" /><path
             d="m 274.96835,514.18484 0.264,0 c 0.076,0 0.114,0.112 0.151,0.224 -0.151,0.71 -0.982,0.86 -1.511,1.27 -0.189,0 -0.303,0.076 -0.416,0.113 -0.151,-0.037 -0.265,-0.113 -0.303,-0.261 0,-0.038 0,-0.15 0.038,-0.262 l 1.777,-1.084 z"
             style="fill:none;stroke:#231f20;stroke-width:0.30000001;stroke-linecap:butt;stroke-linejoin:miter;stroke-miterlimit:2.61299992;stroke-dasharray:none;stroke-opacity:1"
             id="path82"
             inkscape:connector-curvature="0" /><path
             d="m 269.23535,515.56084 c 0.68,0 1.587,0.075 1.927,0.636 0.794,0.859 0.529,2.393 1.171,3.178 0.189,0.224 0.719,0.299 1.097,0.149 0.642,-0.261 0.831,-1.197 0.831,-1.944 -0.038,-0.449 -0.038,-0.822 -0.038,-1.196 0.68,1.271 1.134,2.879 0.718,4.374 -0.302,0.636 -0.68,1.309 -1.36,1.309 -0.87,0.112 -1.663,-0.224 -2.154,-0.823 -0.869,-1.533 -0.152,-3.963 -1.927,-4.673 -0.567,-0.187 -1.172,-0.076 -1.512,0.187 -0.341,-0.15 0.075,-0.561 0.264,-0.786 0.303,-0.262 0.681,-0.262 0.983,-0.411"
             style="fill:#ed1c24;fill-opacity:1;fill-rule:evenodd;stroke:none"
             id="path84"
             inkscape:connector-curvature="0" /><path
             d="m 269.23535,515.56084 c 0.68,0 1.587,0.075 1.927,0.636 0.794,0.859 0.529,2.393 1.171,3.178 0.189,0.224 0.719,0.299 1.097,0.149 0.642,-0.261 0.831,-1.197 0.831,-1.944 -0.038,-0.449 -0.038,-0.822 -0.038,-1.196 0.68,1.271 1.134,2.879 0.718,4.374 -0.302,0.636 -0.68,1.309 -1.36,1.309 -0.87,0.112 -1.663,-0.224 -2.154,-0.823 -0.869,-1.533 -0.152,-3.963 -1.927,-4.673 -0.567,-0.187 -1.172,-0.076 -1.512,0.187 -0.341,-0.15 0.075,-0.561 0.264,-0.786 0.303,-0.262 0.681,-0.262 0.983,-0.411 z"
             style="fill:none;stroke:#231f20;stroke-width:0.30000001;stroke-linecap:butt;stroke-linejoin:miter;stroke-miterlimit:2.61299992;stroke-dasharray:none;stroke-opacity:1"
             id="path86"
             inkscape:connector-curvature="0" /><path
             d="m 274.96835,516.07284 c 2.493,2.244 4.723,4.262 4.61,7.628 -2.872,-1.197 -4.081,-4.45 -4.648,-7.74 l 0.038,0.112 z"
             style="fill:#ed1c24;fill-opacity:1;fill-rule:evenodd;stroke:none"
             id="path88"
             inkscape:connector-curvature="0" /><path
             d="m 274.96835,516.07284 c 2.493,2.244 4.723,4.262 4.61,7.628 -2.872,-1.197 -4.081,-4.45 -4.648,-7.74 l 0.038,0.112 z"
             style="fill:none;stroke:#231f20;stroke-width:0.30000001;stroke-linecap:butt;stroke-linejoin:miter;stroke-miterlimit:2.61299992;stroke-dasharray:none;stroke-opacity:1"
             id="path90"
             inkscape:connector-curvature="0" /><path
             d="m 256.72935,511.84784 -1.007,0.087 -1.182,1.949 0.876,0.607 c 0.131,0 0.175,-0.043 0.306,-0.173 l 1.402,-2.297 c 0,-0.173 -0.263,-0.259 -0.395,-0.173"
             style="fill:#ed1c24;fill-opacity:1;fill-rule:evenodd;stroke:none"
             id="path92"
             inkscape:connector-curvature="0" /><path
             d="m 256.72935,511.84784 -1.007,0.087 -1.182,1.949 0.876,0.607 c 0.131,0 0.175,-0.043 0.306,-0.173 l 1.402,-2.297 c 0,-0.173 -0.263,-0.259 -0.395,-0.173 z"
             style="fill:none;stroke:#231f20;stroke-width:0.30000001;stroke-linecap:butt;stroke-linejoin:miter;stroke-miterlimit:2.61299992;stroke-dasharray:none;stroke-opacity:1"
             id="path94"
             inkscape:connector-curvature="0" /><path
             d="m 251.47535,510.40684 -0.265,0 c 0.265,0.412 0.718,0.973 0.416,1.608 -1.021,1.721 -3.326,1.608 -4.044,3.627 -0.151,0.86 0.038,1.683 0.567,2.094 1.209,0.561 2.57,0.112 3.59,-0.374 0.605,-0.523 1.399,-1.121 1.776,-1.72 -0.756,0.262 -1.587,1.308 -2.683,0.898 -0.378,-0.225 -0.68,-0.636 -0.793,-1.159 0.264,-1.682 2.645,-1.945 2.456,-3.739 -0.189,-0.673 -0.453,-1.159 -1.02,-1.235"
             style="fill:#ed1c24;fill-opacity:1;fill-rule:evenodd;stroke:none"
             id="path96"
             inkscape:connector-curvature="0" /><path
             d="m 251.47535,510.40684 -0.265,0 c 0.265,0.412 0.718,0.973 0.416,1.608 -1.021,1.721 -3.326,1.608 -4.044,3.627 -0.151,0.86 0.038,1.683 0.567,2.094 1.209,0.561 2.57,0.112 3.59,-0.374 0.605,-0.523 1.399,-1.121 1.776,-1.72 -0.756,0.262 -1.587,1.308 -2.683,0.898 -0.378,-0.225 -0.68,-0.636 -0.793,-1.159 0.264,-1.682 2.645,-1.945 2.456,-3.739 -0.189,-0.673 -0.453,-1.159 -1.02,-1.235 z"
             style="fill:none;stroke:#231f20;stroke-width:0.30000001;stroke-linecap:butt;stroke-linejoin:miter;stroke-miterlimit:2.61299992;stroke-dasharray:none;stroke-opacity:1"
             id="path98"
             inkscape:connector-curvature="0" /><path
             d="m 254.00435,514.11984 -0.265,0 c -0.075,0 -0.113,0.113 -0.151,0.225 0.151,0.71 0.983,0.86 1.512,1.271 0.189,0 0.302,0.075 0.416,0.112 0.151,-0.037 0.264,-0.112 0.301,-0.261 0,-0.038 0,-0.15 -0.037,-0.262 l -1.776,-1.085 z"
             style="fill:#ed1c24;fill-opacity:1;fill-rule:evenodd;stroke:none"
             id="path100"
             inkscape:connector-curvature="0" /><path
             d="m 254.00435,514.11984 -0.265,0 c -0.075,0 -0.113,0.113 -0.151,0.225 0.151,0.71 0.983,0.86 1.512,1.271 0.189,0 0.302,0.075 0.416,0.112 0.151,-0.037 0.264,-0.112 0.301,-0.261 0,-0.038 0,-0.15 -0.037,-0.262 l -1.776,-1.085 z"
             style="fill:none;stroke:#231f20;stroke-width:0.30000001;stroke-linecap:butt;stroke-linejoin:miter;stroke-miterlimit:2.61299992;stroke-dasharray:none;stroke-opacity:1"
             id="path102"
             inkscape:connector-curvature="0" /><path
             d="m 259.73635,515.49684 c -0.68,0 -1.587,0.075 -1.927,0.636 -0.793,0.859 -0.529,2.393 -1.171,3.178 -0.189,0.224 -0.719,0.299 -1.096,0.15 -0.643,-0.262 -0.832,-1.197 -0.832,-1.945 0.038,-0.448 0.038,-0.823 0.038,-1.196 -0.68,1.271 -1.134,2.879 -0.718,4.375 0.302,0.635 0.68,1.308 1.361,1.308 0.869,0.113 1.662,-0.224 2.153,-0.823 0.87,-1.532 0.152,-3.962 1.928,-4.674 0.567,-0.186 1.172,-0.074 1.511,0.187 0.341,-0.149 -0.075,-0.56 -0.264,-0.785 -0.302,-0.261 -0.68,-0.261 -0.983,-0.411"
             style="fill:#ed1c24;fill-opacity:1;fill-rule:evenodd;stroke:none"
             id="path104"
             inkscape:connector-curvature="0" /><path
             d="m 259.73635,515.49684 c -0.68,0 -1.587,0.075 -1.927,0.636 -0.793,0.859 -0.529,2.393 -1.171,3.178 -0.189,0.224 -0.719,0.299 -1.096,0.15 -0.643,-0.262 -0.832,-1.197 -0.832,-1.945 0.038,-0.448 0.038,-0.823 0.038,-1.196 -0.68,1.271 -1.134,2.879 -0.718,4.375 0.302,0.635 0.68,1.308 1.361,1.308 0.869,0.113 1.662,-0.224 2.153,-0.823 0.87,-1.532 0.152,-3.962 1.928,-4.674 0.567,-0.186 1.172,-0.074 1.511,0.187 0.341,-0.149 -0.075,-0.56 -0.264,-0.785 -0.302,-0.261 -0.68,-0.261 -0.983,-0.411 z"
             style="fill:none;stroke:#231f20;stroke-width:0.30000001;stroke-linecap:butt;stroke-linejoin:miter;stroke-miterlimit:2.61299992;stroke-dasharray:none;stroke-opacity:1"
             id="path106"
             inkscape:connector-curvature="0" /><path
             d="m 254.00435,516.00884 c -2.495,2.244 -4.724,4.263 -4.611,7.628 2.872,-1.197 4.082,-4.45 4.649,-7.74 l -0.038,0.112 z"
             style="fill:#ed1c24;fill-opacity:1;fill-rule:evenodd;stroke:none"
             id="path108"
             inkscape:connector-curvature="0" /><path
             d="m 254.00435,516.00884 c -2.495,2.244 -4.724,4.263 -4.611,7.628 2.872,-1.197 4.082,-4.45 4.649,-7.74 l -0.038,0.112 z"
             style="fill:none;stroke:#231f20;stroke-width:0.30000001;stroke-linecap:butt;stroke-linejoin:miter;stroke-miterlimit:2.61299992;stroke-dasharray:none;stroke-opacity:1"
             id="path110"
             inkscape:connector-curvature="0" /><path
             d="m 243.67435,526.21184 4.939,0"
             style="fill:none;stroke:#231f20;stroke-width:0.53899997;stroke-linecap:butt;stroke-linejoin:miter;stroke-miterlimit:2.61299992;stroke-dasharray:none;stroke-opacity:1"
             id="path112"
             inkscape:connector-curvature="0" /><path
             d="m 256.86635,558.27784 c 0,0 -2.503,1.523 0.598,2.829 3.101,1.305 7.398,2.339 11.75,2.502 4.352,0.163 4.787,0.217 4.787,0.217 0,0 -4.188,-1.468 -4.352,-3.535 -0.163,-2.068 0,-2.394 0.49,-3.808 0.489,-1.414 0.381,-1.088 0.381,-1.088 l -3.047,0.163 c 0,0 2.013,-2.666 2.285,-7.779 -0.163,-1.034 -0.598,-0.707 -0.979,-0.054 -0.381,0.653 -4.896,7.725 -8.378,8.975 -3.481,1.251 -3.535,1.578 -3.535,1.578"
             style="fill:#231f20;fill-opacity:1;fill-rule:nonzero;stroke:none"
             id="path114"
             inkscape:connector-curvature="0" /><text
             xml:space="preserve"
             style="font-style:normal;font-weight:normal;font-size:32px;line-height:125%;font-family:sans-serif;letter-spacing:0px;word-spacing:0px;fill:#000000;fill-opacity:1;stroke:none;stroke-width:1px;stroke-linecap:butt;stroke-linejoin:miter;stroke-opacity:1"
             id="text4206"
             sodipodi:linespacing="125%"
             y="-592.75525"
             x="172.82446"
             transform="scale(1,-1)"><tspan
               sodipodi:role="line"
               id="tspan4208"
               x="172.82446"
               y="-592.75525"
               style="font-style:normal;font-variant:normal;font-weight:500;font-stretch:normal;font-family:Revue;-inkscape-font-specification:'Revue Medium'" /></text>
</g><path
           style="fill:none;fill-opacity:1;fill-rule:evenodd;stroke:#420011;stroke-width:0.71999997;stroke-miterlimit:4;stroke-dasharray:none;stroke-opacity:1"
           id="path4309"
           transform="scale(1,-1)"
           sodipodi:type="arc"
           sodipodi:cx="220.72446"
           sodipodi:cy="-521.95526"
           sodipodi:rx="8.3000002"
           sodipodi:ry="2"
           sodipodi:start="0"
           sodipodi:end="0.019245048"
           sodipodi:open="true"
           d="m 229.02446,-521.95526 a 8.3000002,2 0 0 1 -0.002,0.0385" /></g></g><g
       inkscape:groupmode="layer"
       id="layer6"
       inkscape:label="Layer 1"
       style="display:inline;"><g
         inkscape:groupmode="layer"
         id="layer8"
         inkscape:label="bildpfad"
         style="display:none"><path
           style="display:inline;fill:none;fill-opacity:1;fill-rule:evenodd;stroke:#420011;stroke-width:0.8622787;stroke-miterlimit:4;stroke-dasharray:none;stroke-opacity:1"
           d="M 3.4715043,45.635356 C -5.0470387,34.449216 -11.232602,17.433046 -11.232602,0.36357642 c 0,-34.13894042 16.9499943,-61.81400042 42.947705,-61.81400042 25.997711,0 43.176889,25.6659 43.176889,59.8048304 0,17.0694696 2.065063,34.7553696 -6.453479,45.9415096"
           id="path4311"
           inkscape:connector-curvature="0"
           sodipodi:nodetypes="csssc" /></g><text
         xml:space="preserve"
         style="font-style:normal;font-weight:normal;font-size:32px;line-height:125%;font-family:sans-serif;letter-spacing:0px;word-spacing:0px;display:inline;fill:url(#linearGradient4489);fill-opacity:1;stroke:none;stroke-width:0.17278657;stroke-linecap:butt;stroke-linejoin:miter;stroke-opacity:1;stroke-miterlimit:4;stroke-dasharray:none;"
         id="text4248"
         sodipodi:linespacing="125%"
         x="17.359497"
         y="117.14333"
         transform="matrix(6.1118042,0,0,5.4803788,333.41618,-206.3118)"><textPath
           xlink:href="#path4311"
           id="textPath4377"
           style="font-style:normal;font-variant:normal;font-weight:500;font-stretch:normal;font-size:17.71062389px;font-family:Revue;-inkscape-font-specification:'Revue Medium';fill:#127bca;fill-opacity:1;stroke:none;stroke-opacity:1;stroke-width:0.17278657;stroke-miterlimit:4;stroke-dasharray:none;stroke-linejoin:miter;">Musikverein Angelbachtal e.V.</textPath></text>
</g></g></svg>